<svg width="64" height="64" viewBox="0 0 64 64" fill="none" xmlns="http://www.w3.org/2000/svg">
  <title>Regenerace a výkon</title>
  <path d="M32 47C23 41 18 34 18 27C18 21.8 21.8 18 26.5 18C29 18 31 19.2 32 21C33 19.2 35 18 37.5 18C42.2 18 46 21.8 46 27C46 34 41 41 32 47Z" stroke="#FF6A2A" stroke-width="2.4" stroke-linejoin="round"/>
  <path d="M32 27V38" stroke="#FF6A2A" stroke-width="2.4" stroke-linecap="round"/>
  <path d="M26.5 32.5H37.5" stroke="#FF6A2A" stroke-width="2.4" stroke-linecap="round"/>
  <path d="M47 15L49 20L54 22L49 24L47 29L45 24L40 22L45 20L47 15Z" stroke="#FF6A2A" stroke-width="1.8" stroke-linejoin="round"/>
</svg>
